<?xml version="1.0" encoding="utf-8"?>
<!-- Generator: Adobe Illustrator 27.5.0, SVG Export Plug-In . SVG Version: 6.00 Build 0)  -->
<svg version="1.1" xmlns="http://www.w3.org/2000/svg" xmlns:xlink="http://www.w3.org/1999/xlink"
	x="0px" y="0px"
	viewBox="0 0 799.92 799.92" style="enable-background:new 0 0 40 40;" xml:space="preserve">
<g id="Background">
	<rect style="fill-rule:evenodd;clip-rule:evenodd;fill:none;" width="40" height="40"/>
</g>
<g id="Objects">
		<g>
			<path style="fill-rule:evenodd;clip-rule:evenodd;" d="M557.021,699.887c-4.356-8.468-8.868-10.808-12.277-18.498
				c-9.353-21.097-13.687-49.627-18.638-63.188c-6.259-17.144-8.544-30.219,3.467-23.464c12.01,6.756-16.514-20.267-9.008-20.267
				c7.507,0-10.508-30.776-1.501-29.274c9.008,1.502-12.01-26.272,0.751-18.015c12.761,8.257-1.502-36.028,6.005-30.024
				c7.506,6.005-1.501-22.518,3.003-19.517c4.503,3.003-6.006-13.511,1.501-11.259c7.506,2.252-0.751-24.771,5.254-18.015
				c6.005,6.755,6.756-32.277,11.26-22.519c4.504,9.758-8.257-36.03,0.751-30.025c9.007,6.006-9.008-37.531,0.75-33.027
				c9.758,4.505-9.008-18.765,1.501-15.762c10.509,3.002-8.256-18.016,1.502-18.016c9.757,0,9.877-21.435,16.334-24.71
				c6.458-3.276,10.126-9.604,18.826-6.752c10.579,3.468,31.677,12.208,47.468,10.639c19.214-1.909,45.35-39.389,28.201-50.35
				c-13.293-8.496,0.83-28.622-12.682-43.635c-13.511-15.013-11.828-18.802-14.83-12.797c-3.002,6.005-11.259-21.017-11.259-14.262
				c0,6.756-17.265-12.761-18.015-6.756c-0.751,6.005-8.247-10.675-8.247-3.919c0,2.898-0.482,2.111-1.112-0.14
				c0.046-14.224-9.787-38.563-19.663-38.816c-9.759-0.25-24.094,23.98-25.3,36.064c-16.233,1.667-22.291-13.846-22.368-6.576
				c-0.055,5.145-13.018,16.645-15.171,9.327c-2.151-7.316-9.469,21.951-9.899,9.9c-0.43-12.051-18.076,35.724-17.215,17.646
				c0.86-18.077-13.342,21.949-14.634,8.178c-1.291-13.772-1.291-12.912-4.304,0.86c-3.013,13.773-6.025,25.394-6.025,6.456
				s6.887-30.559,0-24.103c-6.887,6.456-12.052,24.104-11.621,8.608c0.431-15.494,4.305-40.027,0.431-27.546
				c-3.874,12.483-8.178,20.66-8.178,9.9c0-10.76,0.001-30.559-3.013-18.507c-3.014,12.052-12.912,16.355-12.912,4.734
				c0-11.62,5.596-30.988,0-21.95c-5.595,9.038-12.481,28.406-12.481,15.925c0-12.481,2.152-28.837,0-22.811
				c-2.152,6.026-11.19,24.963-11.621,14.203c-0.43-10.76,0.431-32.709-1.721-21.089c-2.152,11.62-9.038,19.798-10.76,10.76
				c-1.722-9.038-6.456-23.672-7.317-17.216c-0.861,6.456,1.722,32.279-4.734,20.658c-6.456-11.62-17.646-31.419-16.786-21.52
				c0.861,9.899,4.735,30.989-4.303,21.09c-9.039-9.899-19.368-30.988-19.368-16.785c0,14.203,6.457,30.127-2.152,21.089
				s-28.407-29.696-21.951-17.216c6.456,12.481,16.786,33.142,6.456,24.103c-10.33-9.038-28.836-28.406-22.381-14.634
				c6.456,13.773,19.368,40.457,2.583,27.545c-16.786-12.911-26.685-31.418-22.38-17.215c4.304,14.203,16.785,29.696,6.886,22.811
				c-9.898-6.887-21.519-12.911-15.494-7.316c6.025,5.596,10.071,18.271,0.937,11.747c-9.134-6.524-24.142-19.574-15.659-7.829
				c8.482,11.744,13.049,25.446,5.873,19.574c-7.177-5.873-21.532-10.439-15.659-2.61c5.872,7.83,5.219,21.531-2.61,16.964
				c-7.829-4.566-13.702-9.786-9.135-2.609c4.568,7.177,5.873,22.184-0.652,13.702c-6.525-8.482-7.83-24.142-8.482-14.354
				c-0.653,9.787-1.305,28.056-4.567,18.269c-3.262-9.787-6.525-30.013-6.525-13.701c0,16.311,8.482,33.928,0,23.488
				c-8.482-10.439-13.049-23.488-11.744-13.049c1.305,10.439,6.525,32.622,0,24.141s-14.355-18.921-9.135-9.134
				c5.22,9.787,12.397,24.142,3.915,18.269c-8.482-5.872-20.88-22.185-16.964-11.092c3.915,11.092,17.616,19.574,8.482,16.311
				c-9.134-3.263-26.751-16.964-18.269-7.829c8.482,9.134,25.446,24.142,15.659,21.531c-9.787-2.61-15.659-0.652-7.83,1.957
				c7.83,2.61,19.575,14.354,9.135,15.659c-10.439,1.305-22.184,12.396-11.092,9.787c11.092-2.61,14.863,3.354,1.305,12.396
				c-13.559,9.043-18.005,19.166-5.21,14.375c12.795-4.79,18.26,9.767,4.558,12.377c-13.702,2.609-37.191,5.871-20.227,7.177
				c16.964,1.305,27.403,7.829,15.659,7.829c-11.744,0-33.928,7.177-16.311,7.177c17.616,0,27.403,11.093,15.006,11.093
				c-12.396,0-23.489,7.829-11.092,7.829c12.397,0,20.227,11.745,8.482,11.745c-11.745,0-18.921,4.567-7.177,7.829
				c11.744,3.263,13.702,7.83,2.61,7.83c-11.092,0-9.136,7.177,0.652,7.177c9.788,0,6.261,2.691,1.051,5.143
				c-5.209,2.452-15.935,13.483-7.661,9.193c8.274-4.289,15.016-2.451,7.968,2.759c-7.048,5.21-12.257,13.79-4.29,11.339
				c7.967-2.452,7.661,10.725-1.226,15.628c-8.887,4.904-11.645,4.597-4.904,7.355c6.742,2.758,7.048,12.87,0,11.338
				c-7.048-1.532-20.532,2.452-10.113,2.452c10.419,0,18.999,5.822,8.887,5.822c-10.113,0-19,3.066-9.807,4.597
				c9.193,1.532,10.419,5.822,3.065,5.822c-7.355,0-15.016,2.452-5.516,4.291c9.5,1.838,7.662,6.435,0.307,5.209
				c-7.355-1.226-4.904-0.307,1.838,4.903c6.742,5.21-1.226,8.888-4.597,7.049c-3.371-1.839-7.049-4.291-3.065,1.225
				c3.984,5.517,6.742,18.694,0,14.098c-6.742-4.598-6.435-5.822-4.596,2.451c1.839,8.274-0.307,15.935-6.129,12.87
				c-5.822-3.063-4.902-3.983-2.451,3.678c2.451,7.661,2.451,14.097-3.064,13.177c-5.516-0.919-9.194,2.759-3.065,3.371
				c6.129,0.613-4.291,8.274-7.967,10.113c-3.677,1.839-8.887,3.983,0,3.983c8.887,0,3.371-1.839,1.838,2.759
				c-1.532,4.597-2.757,9.192,1.533,5.209c4.29-3.983,7.967-0.612,7.048,5.517c-0.919,6.129,3.678,7.661,4.597,2.758
				c0.919-4.903,6.435-5.516,11.338-0.307c4.903,5.21,2.452,1.532,0.919-4.29c-1.532-5.822,0.614-13.79,7.049-7.661
				c6.435,6.128,3.063,0.919,1.225-4.598c-1.838-5.516-4.903-15.016,2.452-7.048c7.354,7.968,10.418,9.5,6.742,1.227
				c-3.677-8.274-4.904-19.612,0.613-12.871c5.517,6.742,7.049,3.371,3.678-2.451c-3.371-5.823,1.225-14.403,5.516-9.193
				c4.291,5.209,7.355,4.902,3.372-1.839c-3.984-6.742,2.758-16.549,7.967-10.113c5.21,6.436,5.516,3.371,1.532-5.822
				c-3.984-9.193-1.839-18.693,5.822-14.71c7.661,3.984,11.339,7.049,6.436-4.902c-4.903-11.952-0.307-19.92,3.984-13.484
				c4.291,6.435,6.436,7.968,2.452-5.209c-3.984-13.177-8.887-21.759,0.307-19.307c9.193,2.452,15.628-1.838,7.048-3.677
				c-8.58-1.839-5.823-9.807-0.613-9.807c5.21,0,14.709-4.903,7.967-5.517c-6.741-0.612-13.177-2.145-7.661-6.434
				c5.516-4.29,11.953-9.5,4.904-9.193c-7.049,0.306-5.517-15.322,1.225-8.888c6.743,6.436,8.888,6.742,4.597-1.226
				c-4.291-7.968,5.822-19.612-0.613-17.161c-6.436,2.452-8.58-1.838-5.822-5.209c2.757-3.371,8.273-9.193,2.757-8.887
				c-5.516,0.307-11.338-6.13-5.516-6.742c5.822-0.613,7.967-3.371,3.983-5.822c-3.983-2.452-10.419-13.791-4.29-10.727
				c6.129,3.065,6.129-0.919,2.452-7.967c-3.678-7.049,7.355-17.468,6.742-6.129c-0.613,11.339-1.531,21.45,1.532,16.241
				c3.064-5.209,7.661,1.838,3.371,6.129c-4.29,4.291-7.967,13.177-2.145,8.887c5.822-4.29,7.354,1.84,3.677,7.662
				c-3.677,5.822-7.662,9.5-1.839,5.516c5.823-3.984,9.807-2.145,6.129,7.048c-3.677,9.193-10.419,14.098-2.452,12.871
				c7.968-1.226,12.258,11.031,4.903,20.531c-7.354,9.5-8.273,14.097-1.838,8.275c6.435-5.822,1.839,14.71-0.613,25.742
				c-2.452,11.031-3.677,12.258-0.306,7.355c3.371-4.903,13.79-0.307,11.032,12.258c-2.758,12.564-7.661,23.289-3.371,17.774
				c4.29-5.516,1.532,13.791-0.613,22.064c-2.145,8.274-3.983,15.016,0.92,9.5c4.903-5.516,7.822-0.123,2.883,9.26
				c-4.939,9.382-4.444,14.32-0.987,29.135c3.456,14.813,13.333,51.354,16.789,67.157c3.457,15.802,1.976,34.073,12.839,39.999
				s17.777,4.938,17.777,4.938s15.307,6.42,19.752,1.482c4.445-4.938,18.271,2.963,18.271-16.79
				c0-19.752-4.938-17.283-11.357-20.246c-6.42-2.964-18.271-18.765-13.826-18.271c4.444,0.494,2.962,2.964-1.482-3.456
				c-4.444-6.42-1.805-9.854,1.682-7.114c3.487,2.739-0.499-0.001-4.235-6.477c-3.736-6.476-5.979-9.465-1.495-8.22
				c4.484,1.245,3.239-1.245-1.245-4.981c-4.484-3.736-8.719-8.718-4.235-7.971c4.484,0.747,3.985,1.743,0.747-3.238
				c-3.238-4.981-6.726-15.941-2.74-14.447c3.986,1.495,2.989,4.484,0.748-3.736c-2.242-8.22-4.981-19.18-0.997-14.945
				c3.986,4.234,4.483,9.714,1.993-0.997c-2.491-10.71-4.483-16.439-0.747-14.945c3.736,1.495,2.74,0.498,0.996-3.985
				c-1.744-4.482-3.238-14.197-1.245-11.457c1.992,2.739,1.744,2.242,1.744-3.736s-3.986-10.213,0.249-9.715
				c4.235,0.498,2.242,0,0.498-5.232c-1.743-5.231-1.494-10.71,2.491-9.964c3.985,0.747,4.483-0.746,1.246-2.241
				c-3.238-1.494-4.733-12.205,0.249-9.964c4.981,2.242,5.729,9.714,2.74-1.744c-2.989-11.457-0.498-21.92,0-17.684
				c0.499,4.234,2.74,5.23,2.491-5.232c-0.25-10.461,4.732-23.165,3.736-15.194c-0.996,7.971-2.988,14.697-0.498,11.209
				c2.491-3.487,3.486,11.707,0.498,14.696c-2.988,2.989-4.483,10.213-1.743,7.474c2.74-2.74-0.248,11.955-2.491,15.193
				c-2.242,3.238-4.483,5.729-1.245,4.733c3.238-0.996,2.242,11.956-1.495,13.201c-3.737,1.246-6.975,7.473-3.488,5.48
				c3.488-1.992,3.487,2.989,1.246,8.719c-2.242,5.729-4.483,9.215-1.744,7.223c2.74-1.992,4.732,9.216,3.736,13.7
				c-0.996,4.483-1.495,6.477,0.498,5.979c1.993-0.499,1.495,11.956,2.989,14.945c1.495,2.989,17.442,30.622,25.28,40.304
				c7.837,9.682,23.973,31.119,24.895,35.268c0.922,4.148,8.298,6.223,12.447,11.295c4.149,5.07,27.201,5.531,37.804,3.457
				c10.604-2.074,19.363-5.531,20.055-14.291c0.691-8.76-5.071-11.986-7.837-11.986c-2.767,0,1.152-5.533-6.455-8.529
				s-7.147,0.461-16.366,0.461c-9.22,0-8.989-4.609-11.064-7.607c-2.075-2.997,3.458-2.766-1.614-5.532
				c-5.071-2.767-10.372-8.99-7.146-8.99c3.227,0,3.457-0.23-2.305-2.996c-5.763-2.767-8.299-5.763-4.149-5.763
				s1.844-0.692-2.766-3.689c-4.61-2.996-8.989-9.221-5.762-9.221c3.227,0,10.833,1.614,3.227-1.844
				c-7.606-3.458-12.216-9.451-6.915-9.451c5.302,0,6.684,0.001,0.691-3.227c-5.993-3.227-10.604-12.909-5.302-9.912
				c5.302,2.997,5.994,5.071,2.536-1.844c-3.458-6.916-5.532-13.139-2.074-10.143c3.458,2.996,6.224,7.376,4.379,0.922
				c-1.844-6.454-4.84-18.21-2.074-13.831c2.766,4.38,10.372,5.763,5.071,0.23c-5.302-5.532-7.606-13.369-0.691-9.911
				c6.915,3.457,8.068,1.613,3.919-1.845c-4.15-3.457-4.61-17.057-1.153-12.908c3.457,4.149,8.067,7.838,5.993,1.152
				c-2.074-6.685-9.451-19.132-1.844-14.521c7.607,4.61,7.607,2.535,4.611-1.845c-2.997-4.38-5.994-11.525-1.614-9.911
				c4.379,1.613,11.295,0.229,6.224-2.767c-5.071-2.996-10.373-6.224-4.61-6.224c5.762,0,7.375-2.305,4.148-3.689
				c-3.227-1.383-8.529-5.992-2.536-5.531c5.993,0.46,11.525-0.922,7.146-2.767c-4.38-1.845-9.682-6.455-4.61-6.455
				c5.071,0,13.14-0.921,8.299-3.227c-4.841-2.305-10.604-5.532-3.689-5.532s14.062,0,8.99-1.613
				c-5.071-1.613-7.837-8.299-2.536-7.377c5.302,0.922,9.22-0.921,4.148-3.227c-5.07-2.306-5.993-15.905-0.23-12.217
				c5.763,3.688,7.146,7.607,5.763,0.691c-1.383-6.915,0-23.974,4.149-15.444c4.149,8.529,3.227,17.749,3.919,12.218
				c0.692-5.532,7.606-17.058,6.685-6.455c-0.922,10.604-3.919,17.519,0,12.908c3.919-4.609,9.45-11.294,8.989-2.996
				c-0.46,8.298-2.765,13.14,1.845,8.068c4.61-5.072,9.451-4.381,7.606,1.151c-1.844,5.532-6.224,13.601-0.23,8.068
				c5.994-5.532,15.444-5.302,11.064-1.383c-4.38,3.918-7.837,9.911-3.227,7.607c4.61-2.305,11.987-5.301,9.682,0.23
				c-2.306,5.532-6.915,7.837-2.767,6.915c4.149-0.922,10.834,3.458,6.454,5.993c-4.379,2.536-5.762,4.841-0.229,5.302
				c5.531,0.462,8.297,13.37,2.534,13.37c-5.763,0-2.996,3.689,0.462,3.919c3.457,0.229,4.148,12.678,0.23,14.291
				c-3.919,1.614-4.841,0.922,1.383,4.38c6.224,3.458,5.417,10.802,2.087,10.468c-3.33-0.333-7.992,0.999-0.666,2.331
				c7.325,1.332,9.989,7.658,5.66,6.993c-4.328-0.666-5.327,1.998-0.665,5.661c4.662,3.662,11.987,18.315,6.992,14.652
				c-4.994-3.664-5.661,4.329-0.333,7.326c5.328,2.996,15.318,14.317,9.657,13.652c-5.66-0.666-4.994,0,0.333,4.328
				c5.328,4.329,10.655,17.983,5.994,16.984c-4.662-1-9.991,4.661,0,4.328c9.99-0.333,8.991,13.652,4.329,13.986
				c-4.662,0.333-4.662,2.331,0.666,3.663c5.328,1.332,5.661,10.323,2.997,13.32c-2.664,2.996,6.993,9.656,3.996,16.982
				c-2.997,7.325-1.999,18.315,2.663,26.64c4.662,8.325,13.986,20.313,16.983,26.973c2.997,6.66,7.992,7.992,12.987,5.994
				c4.995-1.998,4.329,6.992,15.983,6.992c11.655,0,12.654-3.328,18.315-1.664C553.261,718.23,559.604,704.323,557.021,699.887z"/>
			<path style="fill-rule:evenodd;clip-rule:evenodd;fill:#FFFFFF;" d="M624.341,236.057c4.197-0.542,17.632-3.541,17.742,12.558
				C635.16,255.552,620.898,249.891,624.341,236.057z"/>
			<path style="fill-rule:evenodd;clip-rule:evenodd;" d="M636.646,229.683c1.536,0.509,1.369,5.187-0.373,10.448
				c-1.742,5.26-4.4,9.112-5.936,8.604c-1.538-0.509-1.37-5.187,0.372-10.447C632.451,233.026,635.109,229.174,636.646,229.683z"/>
		</g>
</g>
</svg>